<?xml version="1.0" ?><svg viewBox="0 0 32 32" xmlns="http://www.w3.org/2000/svg"><defs><style>.cls-1{fill:#d8e1ef;}.cls-2{fill:#0593ff;}</style></defs><title/><g data-name="Warning" id="Warning-2"><path class="cls-1" d="M28.83,24.45l-12-18a1,1,0,0,0-1.66,0l-12,18a1,1,0,0,0,0,1A1,1,0,0,0,4,26H28a1,1,0,0,0,.88-.53A1,1,0,0,0,28.83,24.45Z"/><path class="cls-2" d="M16,20a1,1,0,0,1-1-1V13a1,1,0,0,1,2,0v6A1,1,0,0,1,16,20Z"/><path class="cls-2" d="M16,23a1,1,0,0,1-1-1,1,1,0,0,1,2,0A1,1,0,0,1,16,23Z"/></g></svg>